<svg width="231" height="60" viewBox="0 0 231 60" fill="none" xmlns="http://www.w3.org/2000/svg">
<mask id="path-1-inside-1_3_983" fill="white">
<path fill-rule="evenodd" clip-rule="evenodd" d="M77.3456 59.8446C85.9154 52.8771 91.3906 42.2503 91.3906 30.3446C91.3906 17.9471 85.4537 6.93625 76.2679 0H222.229C227.358 0 231.162 4.75766 230.033 9.76044L220.143 53.605C219.32 57.2534 216.079 59.8446 212.339 59.8446H77.3456ZM29.4356 59.8446H8.01557C1.14295 59.8446 -2.53072 51.7506 1.99404 46.5776L15.4012 31.2498C15.6709 42.788 21.0836 53.0542 29.4356 59.8446Z"/>
</mask>
<g filter="url(#filter0_i_3_983)">
<path fill-rule="evenodd" clip-rule="evenodd" d="M77.3456 59.8446C85.9154 52.8771 91.3906 42.2503 91.3906 30.3446C91.3906 17.9471 85.4537 6.93625 76.2679 0H222.229C227.358 0 231.162 4.75766 230.033 9.76044L220.143 53.605C219.32 57.2534 216.079 59.8446 212.339 59.8446H77.3456ZM29.4356 59.8446H8.01557C1.14295 59.8446 -2.53072 51.7506 1.99404 46.5776L15.4012 31.2498C15.6709 42.788 21.0836 53.0542 29.4356 59.8446Z" fill="#343434" fill-opacity="0.2"/>
</g>
<path d="M77.3456 59.8446L76.084 58.2928L71.7153 61.8446H77.3456V59.8446ZM76.2679 0V-2H70.3003L75.0627 1.59608L76.2679 0ZM230.033 9.76044L231.984 10.2005V10.2005L230.033 9.76044ZM220.143 53.605L218.192 53.1649V53.1649L220.143 53.605ZM29.4356 59.8446V61.8446H35.0659L30.6973 58.2928L29.4356 59.8446ZM1.99404 46.5776L0.488655 45.2609H0.488654L1.99404 46.5776ZM15.4012 31.2498L17.4006 31.203L17.2805 26.0635L13.8958 29.933L15.4012 31.2498ZM89.3906 30.3446C89.3906 41.6228 84.2067 51.6888 76.084 58.2928L78.6073 61.3964C87.6242 54.0655 93.3906 42.8777 93.3906 30.3446H89.3906ZM75.0627 1.59608C83.7695 8.17065 89.3906 18.6009 89.3906 30.3446H93.3906C93.3906 17.2933 87.1379 5.70185 77.4731 -1.59608L75.0627 1.59608ZM76.2679 2H222.229V-2H76.2679V2ZM222.229 2C226.076 2 228.929 5.56824 228.082 9.32033L231.984 10.2005C233.395 3.94707 228.64 -2 222.229 -2V2ZM228.082 9.32033L218.192 53.1649L222.094 54.0452L231.984 10.2005L228.082 9.32033ZM218.192 53.1649C217.575 55.9012 215.144 57.8446 212.339 57.8446V61.8446C217.014 61.8446 221.065 58.6056 222.094 54.0451L218.192 53.1649ZM212.339 57.8446H77.3456V61.8446H212.339V57.8446ZM29.4356 57.8446H8.01557V61.8446H29.4356V57.8446ZM8.01557 57.8446C2.8611 57.8446 0.105855 51.7741 3.49942 47.8944L0.488654 45.2609C-5.16729 51.7271 -0.5752 61.8446 8.01557 61.8446V57.8446ZM3.49942 47.8944L16.9066 32.5665L13.8958 29.933L0.488655 45.2609L3.49942 47.8944ZM30.6973 58.2928C22.7808 51.8565 17.6561 42.1318 17.4006 31.203L13.4017 31.2965C13.6857 43.4442 19.3864 54.2519 28.1739 61.3964L30.6973 58.2928Z" fill="url(#paint0_linear_3_983)" fill-opacity="0.7" mask="url(#path-1-inside-1_3_983)"/>
<defs>
<filter id="filter0_i_3_983" x="0" y="0" width="230.233" height="59.8447" filterUnits="userSpaceOnUse" color-interpolation-filters="sRGB">
<feFlood flood-opacity="0" result="BackgroundImageFix"/>
<feBlend mode="normal" in="SourceGraphic" in2="BackgroundImageFix" result="shape"/>
<feColorMatrix in="SourceAlpha" type="matrix" values="0 0 0 0 0 0 0 0 0 0 0 0 0 0 0 0 0 0 127 0" result="hardAlpha"/>
<feOffset/>
<feGaussianBlur stdDeviation="2"/>
<feComposite in2="hardAlpha" operator="arithmetic" k2="-1" k3="1"/>
<feColorMatrix type="matrix" values="0 0 0 0 1 0 0 0 0 1 0 0 0 0 1 0 0 0 0.08 0"/>
<feBlend mode="normal" in2="shape" result="effect1_innerShadow_3_983"/>
</filter>
<linearGradient id="paint0_linear_3_983" x1="235.639" y1="10.2905" x2="12.7758" y2="90.0071" gradientUnits="userSpaceOnUse">
<stop offset="0.111088" stop-color="white" stop-opacity="0"/>
<stop offset="0.401405" stop-color="white" stop-opacity="0.2"/>
<stop offset="0.564642" stop-color="white" stop-opacity="0"/>
<stop offset="0.953941" stop-color="white" stop-opacity="0"/>
<stop offset="1" stop-color="white" stop-opacity="0.1"/>
</linearGradient>
</defs>
</svg>
